<svg xmlns="http://www.w3.org/2000/svg" xmlns:xlink="http://www.w3.org/1999/xlink" version="1.1" x="0px" y="0px" viewBox="0 0 512 640" style="enable-background:new 0 0 512 512;" xml:space="preserve"><path d="M26.95,376.33c15.23,0,30.45,0,45.68,0c36.39,0,72.79,0,109.18,0c44.18,0,88.37,0,132.55,0c38.06,0,76.13,0,114.19,0  c18.52,0,37.22,0.74,55.74,0c0.26-0.01,0.52,0,0.78,0c1.84,0,3.24-0.69,4.2-1.72c1.08-0.97,1.8-2.39,1.8-4.28  c0-25.81,0-51.62,0-77.43c0-40.96,0-81.91,0-122.87c0-9.45,0-18.91,0-28.36c0-3.24-2.75-6-6-6c-15.23,0-30.45,0-45.68,0  c-36.39,0-72.79,0-109.18,0c-44.18,0-88.37,0-132.55,0c-38.06,0-76.13,0-114.19,0c-18.52,0-37.22-0.74-55.74,0  c-0.26,0.01-0.52,0-0.78,0c-3.24,0-6,2.75-6,6c0,25.81,0,51.62,0,77.43c0,40.96,0,81.91,0,122.87c0,9.45,0,18.91,0,28.36  C20.95,373.57,23.69,376.33,26.95,376.33z M72.62,147.67c36.39,0,72.79,0,109.18,0c44.18,0,88.37,0,132.55,0  c38.06,0,76.13,0,114.19,0c12.57,0,25.13,0,37.7,0c4.12,0,8.54,0.37,12.82,0.32c0,23.7,0,47.4,0,71.1c0,40.96,0,81.91,0,122.87  c0,7.45,0,14.91,0,22.36c-13.23,0-26.45,0-39.68,0c-36.39,0-72.79,0-109.18,0c-44.18,0-88.37,0-132.55,0c-38.06,0-76.13,0-114.19,0  c-12.57,0-25.13,0-37.7,0c-4.12,0-8.54-0.37-12.82-0.32c0-23.7,0-47.4,0-71.1c0-40.96,0-81.91,0-122.87c0-7.45,0-14.91,0-22.36  C46.17,147.67,59.4,147.67,72.62,147.67z"/><path d="M70.1,286.86c-0.17-7.71-12.17-7.74-12,0c0.4,18.37,13.93,33.33,30.86,36.3c0,0.44,0,0.88,0,1.32c0,7.5,0,15,0,22.51  c0,7.72,12,7.73,12,0c0-7.93,0-15.85,0-23.78c1.19-0.2,2.39-0.44,3.59-0.76c23.13-6.18,34.37-33.81,22.12-54.38  c-5.64-9.49-15.11-15.61-25.71-17.47c0-16.44,0-32.87,0-49.31c10.13,2.76,18.59,11.73,18.86,23.85c0.17,7.71,12.17,7.74,12,0  c-0.4-18.37-13.93-33.33-30.86-36.3c0-0.44,0-0.88,0-1.32c0-7.5,0-15,0-22.51c0-7.72-12-7.73-12,0c0,7.93,0,15.85,0,23.78  c-1.19,0.2-2.39,0.44-3.59,0.76c-23.13,6.18-34.37,33.81-22.12,54.38c5.64,9.49,15.11,15.61,25.71,17.47c0,16.44,0,32.87,0,49.31  C78.82,307.95,70.36,298.97,70.1,286.86z M112.53,304.43c-3.46,3.45-7.45,5.56-11.57,6.53c0-8.48,0-16.96,0-25.45  c0-7.55,0-15.11,0-22.66C118.46,267.53,126.63,290.36,112.53,304.43z M77.38,207.57c3.46-3.45,7.45-5.56,11.57-6.53  c0,8.48,0,16.96,0,25.45c0,7.55,0,15.11,0,22.66C71.45,244.47,63.28,221.64,77.38,207.57z"/><path d="M240.18,243.41c22.32,0,44.63,0,66.95,0c35.41,0,70.82,0,106.23,0c8.21,0,16.41,0,24.62,0c1.84,0,3.24-0.69,4.2-1.72  c1.08-0.97,1.8-2.39,1.8-4.28c0-14.37,0-28.75,0-43.12c0-3.24-2.75-6-6-6c-22.32,0-44.63,0-66.95,0c-35.41,0-70.82,0-106.23,0  c-8.21,0-16.41,0-24.62,0c-3.24,0-6,2.75-6,6c0,14.37,0,28.75,0,43.12C234.18,240.65,236.92,243.41,240.18,243.41z M307.13,200.29  c35.41,0,70.82,0,106.23,0c6.21,0,12.41,0,18.62,0c0,10.37,0,20.75,0,31.12c-20.32,0-40.63,0-60.95,0c-35.41,0-70.82,0-106.23,0  c-6.21,0-12.41,0-18.62,0c0-10.37,0-20.75,0-31.12C266.49,200.29,286.81,200.29,307.13,200.29z"/><path d="M165.01,273.47c30.76,0,61.51,0,92.27,0c49.01,0,98.01,0,147.02,0c11.23,0,22.46,0,33.68,0c7.72,0,7.73-12,0-12  c-30.76,0-61.51,0-92.27,0c-49.01,0-98.01,0-147.02,0c-11.23,0-22.46,0-33.68,0C157.29,261.47,157.28,273.47,165.01,273.47z"/><path d="M165.01,303.54c25.05,0,50.11,0,75.16,0c7.72,0,7.73-12,0-12c-25.05,0-50.11,0-75.16,0  C157.29,291.54,157.28,303.54,165.01,303.54z"/><path d="M437.98,291.54c-38.15,0-76.3,0-114.46,0c-5.36,0-10.73,0-16.09,0c-7.72,0-7.73,12,0,12c38.15,0,76.3,0,114.46,0  c5.36,0,10.73,0,16.09,0C445.7,303.54,445.71,291.54,437.98,291.54z"/><path d="M165.01,333.6c12.53,0,25.05,0,37.58,0c7.72,0,7.73-12,0-12c-12.53,0-25.05,0-37.58,0  C157.29,321.6,157.28,333.6,165.01,333.6z"/><path d="M437.98,321.6c-23.4,0-46.8,0-70.2,0c-37.12,0-74.24,0-111.36,0c-8.58,0-17.16,0-25.74,0c-7.72,0-7.73,12,0,12  c23.4,0,46.8,0,70.2,0c37.12,0,74.24,0,111.36,0c8.58,0,17.16,0,25.74,0C445.7,333.6,445.71,321.6,437.98,321.6z"/><text x="0" y="527" fill="#000000" font-size="5px" font-weight="bold" font-family="'Helvetica Neue', Helvetica, Arial-Unicode, Arial, Sans-serif">Created by Vectoria Icons</text><text x="0" y="532" fill="#000000" font-size="5px" font-weight="bold" font-family="'Helvetica Neue', Helvetica, Arial-Unicode, Arial, Sans-serif">from the Noun Project</text></svg>